<svg xmlns="http://www.w3.org/2000/svg" viewBox="0 0 1280 720" role="img" aria-labelledby="title desc">
  <title id="title">Microsoft 365 collaboration map</title>
  <desc id="desc">Synthetic training artwork showing Teams, OneDrive, and SharePoint working together without overlapping labels.</desc>
  <rect width="1280" height="720" fill="#f7f9fc"/>
  <rect x="56" y="56" width="1168" height="608" rx="28" fill="#fff" stroke="#d8e0ea" stroke-width="2"/>
  <text x="92" y="116" font-family="Segoe UI, Arial, sans-serif" font-size="34" font-weight="700" fill="#1f2937">Microsoft 365 Collaboration Flow</text>
  <text x="92" y="154" font-family="Segoe UI, Arial, sans-serif" font-size="18" fill="#52616f">Use the right place for each kind of work, then connect the handoffs.</text>

  <g font-family="Segoe UI, Arial, sans-serif">
    <g transform="translate(120 238)">
      <rect width="300" height="210" rx="20" fill="#eef2ff" stroke="#6264a7" stroke-width="3"/>
      <circle cx="56" cy="54" r="24" fill="#6264a7"/>
      <text x="96" y="62" font-size="26" font-weight="800" fill="#202124">Teams</text>
      <text x="38" y="118" font-size="18" fill="#394150">Discuss decisions</text>
      <text x="38" y="150" font-size="18" fill="#394150">Run meetings</text>
      <text x="38" y="182" font-size="18" fill="#394150">Coordinate work</text>
    </g>

    <g transform="translate(490 238)">
      <rect width="300" height="210" rx="20" fill="#e8f3ff" stroke="#0078d4" stroke-width="3"/>
      <path d="M48 66c15-32 62-30 75 0 20-9 53 5 53 34 0 22-18 40-41 40H52c-26 0-46-17-46-40 0-22 19-40 42-34Z" fill="#0078d4"/>
      <text x="112" y="62" font-size="26" font-weight="800" fill="#202124">OneDrive</text>
      <text x="38" y="118" font-size="18" fill="#394150">Draft privately</text>
      <text x="38" y="150" font-size="18" fill="#394150">Share controlled links</text>
      <text x="38" y="182" font-size="18" fill="#394150">Sync files</text>
    </g>

    <g transform="translate(860 238)">
      <rect width="300" height="210" rx="20" fill="#e8f7f2" stroke="#008272" stroke-width="3"/>
      <rect x="38" y="36" width="62" height="62" rx="12" fill="#008272"/>
      <rect x="114" y="36" width="62" height="62" rx="12" fill="#2fb28f"/>
      <text x="38" y="136" font-size="26" font-weight="800" fill="#202124">SharePoint</text>
      <text x="38" y="168" font-size="18" fill="#394150">Publish team truth</text>
      <text x="38" y="198" font-size="18" fill="#394150">Manage libraries</text>
    </g>
  </g>

  <path d="M436 343h36M806 343h36" stroke="#8a94a6" stroke-width="6" stroke-linecap="round"/>
  <path d="M472 343l-22-15v30ZM842 343l-22-15v30Z" fill="#8a94a6"/>

  <g transform="translate(156 520)" font-family="Segoe UI, Arial, sans-serif">
    <rect width="968" height="92" rx="18" fill="#f4f6f8" stroke="#d8e0ea"/>
    <text x="36" y="38" font-size="22" font-weight="800" fill="#1f2937">Rule of thumb:</text>
    <text x="36" y="62" font-size="19" fill="#394150">Chat in Teams, draft in OneDrive,</text>
    <text x="36" y="86" font-size="19" fill="#394150">then publish team-owned content in SharePoint.</text>
  </g>
</svg>
