<svg xmlns="http://www.w3.org/2000/svg" viewBox="0 0 1280 720" role="img" aria-labelledby="title desc">
  <title id="title">OneDrive files screenshot</title>
  <desc id="desc">Synthetic OneDrive screenshot showing files, sharing status, sync, and version history.</desc>
  <rect width="1280" height="720" fill="#f3f7fb"/>
  <rect x="64" y="54" width="1152" height="612" rx="22" fill="#fff" stroke="#d8e0ea" stroke-width="2"/>
  <rect x="64" y="54" width="1152" height="64" rx="22" fill="#0078d4"/>
  <text x="96" y="96" font-family="Segoe UI, Arial, sans-serif" font-size="28" font-weight="700" fill="#fff">OneDrive</text>
  <rect x="920" y="72" width="240" height="28" rx="14" fill="#fff" opacity=".9"/>
  <text x="948" y="92" font-family="Segoe UI, Arial, sans-serif" font-size="14" fill="#52616f">Search files</text>
  <rect x="64" y="118" width="250" height="548" fill="#f8fafc" stroke="#e5e9f2"/>
  <text x="98" y="168" font-family="Segoe UI, Arial, sans-serif" font-size="18" font-weight="700" fill="#111827">My files</text>
  <text x="98" y="214" font-family="Segoe UI, Arial, sans-serif" font-size="16" fill="#4b5563">Recent</text>
  <text x="98" y="256" font-family="Segoe UI, Arial, sans-serif" font-size="16" fill="#4b5563">Shared</text>
  <text x="98" y="298" font-family="Segoe UI, Arial, sans-serif" font-size="16" fill="#4b5563">Favorites</text>
  <text x="98" y="340" font-family="Segoe UI, Arial, sans-serif" font-size="16" fill="#4b5563">Recycle bin</text>
  <rect x="344" y="148" width="812" height="54" rx="14" fill="#f8fafc" stroke="#d8e0ea"/>
  <text x="374" y="181" font-family="Segoe UI, Arial, sans-serif" font-size="17" font-weight="700" fill="#111827">New</text>
  <text x="458" y="181" font-family="Segoe UI, Arial, sans-serif" font-size="17" fill="#4b5563">Upload</text>
  <text x="560" y="181" font-family="Segoe UI, Arial, sans-serif" font-size="17" fill="#4b5563">Sync</text>
  <text x="638" y="181" font-family="Segoe UI, Arial, sans-serif" font-size="17" fill="#4b5563">Share</text>
  <g transform="translate(344 240)" font-family="Segoe UI, Arial, sans-serif">
    <rect width="812" height="62" fill="#f8fafc"/>
    <text x="26" y="38" font-size="15" font-weight="700" fill="#4b5563">Name</text>
    <text x="430" y="38" font-size="15" font-weight="700" fill="#4b5563">Sharing</text>
    <text x="590" y="38" font-size="15" font-weight="700" fill="#4b5563">Modified</text>
    <line y1="62" x2="812" y2="62" stroke="#e5e9f2"/>
    <g transform="translate(0 62)">
      <text x="26" y="40" font-size="17" fill="#111827">Draft project plan.docx</text>
      <text x="430" y="40" font-size="16" fill="#0078d4">Shared with 3 people</text>
      <text x="590" y="40" font-size="16" fill="#4b5563">Today</text>
      <line y1="62" x2="812" y2="62" stroke="#e5e9f2"/>
    </g>
    <g transform="translate(0 124)">
      <text x="26" y="40" font-size="17" fill="#111827">Meeting notes.one</text>
      <text x="430" y="40" font-size="16" fill="#4b5563">Private</text>
      <text x="590" y="40" font-size="16" fill="#4b5563">Yesterday</text>
      <line y1="62" x2="812" y2="62" stroke="#e5e9f2"/>
    </g>
    <g transform="translate(0 186)">
      <text x="26" y="40" font-size="17" fill="#111827">Quarterly files</text>
      <text x="430" y="40" font-size="16" fill="#008272">Team folder</text>
      <text x="590" y="40" font-size="16" fill="#4b5563">May 29</text>
      <line y1="62" x2="812" y2="62" stroke="#e5e9f2"/>
    </g>
  </g>
  <rect x="356" y="556" width="424" height="54" rx="12" fill="#e8f3ff" stroke="#b7d8fb"/>
  <text x="382" y="590" font-family="Segoe UI, Arial, sans-serif" font-size="17" font-weight="700" fill="#005a9e">Tip: check sharing and version history before sending a file link.</text>
</svg>
