<svg xmlns="http://www.w3.org/2000/svg" viewBox="0 0 1280 720" role="img" aria-labelledby="title desc">
  <title id="title">Microsoft 365 productivity workflow</title>
  <desc id="desc">Synthetic workflow showing how to plan, meet, create, share, publish, and govern work in Microsoft 365.</desc>
  <rect width="1280" height="720" fill="#fff"/>
  <text x="86" y="92" font-family="Segoe UI, Arial, sans-serif" font-size="34" font-weight="800" fill="#111827">Productivity Workflow</text>
  <text x="86" y="128" font-family="Segoe UI, Arial, sans-serif" font-size="18" fill="#52616f">A repeatable pattern for getting work out of chat</text>
  <text x="86" y="154" font-family="Segoe UI, Arial, sans-serif" font-size="18" fill="#52616f">and into durable records.</text>

  <g font-family="Segoe UI, Arial, sans-serif">
    <g transform="translate(82 214)">
      <rect width="304" height="150" rx="18" fill="#eef2ff" stroke="#6264a7" stroke-width="3"/>
      <text x="28" y="46" font-size="21" font-weight="800" fill="#111827">1. Plan in Teams</text>
      <text x="28" y="84" font-size="16" fill="#4b5563">Channel, owner, deadline,</text>
      <text x="28" y="112" font-size="16" fill="#4b5563">and decision log.</text>
    </g>

    <g transform="translate(458 214)">
      <rect width="304" height="150" rx="18" fill="#eef2ff" stroke="#6264a7" stroke-width="3"/>
      <text x="28" y="42" font-size="21" font-weight="800" fill="#111827">2. Meet with</text>
      <text x="28" y="70" font-size="21" font-weight="800" fill="#111827">purpose</text>
      <text x="28" y="108" font-size="16" fill="#4b5563">Agenda, notes, tasks,</text>
      <text x="28" y="134" font-size="16" fill="#4b5563">and recording if needed.</text>
    </g>

    <g transform="translate(834 214)">
      <rect width="304" height="150" rx="18" fill="#e8f3ff" stroke="#0078d4" stroke-width="3"/>
      <text x="28" y="46" font-size="21" font-weight="800" fill="#111827">3. Draft in OneDrive</text>
      <text x="28" y="84" font-size="16" fill="#4b5563">Coauthor privately, then</text>
      <text x="28" y="112" font-size="16" fill="#4b5563">share the right link.</text>
    </g>

    <g transform="translate(266 444)">
      <rect width="304" height="150" rx="18" fill="#e8f7f2" stroke="#008272" stroke-width="3"/>
      <text x="28" y="42" font-size="21" font-weight="800" fill="#111827">4. Publish in</text>
      <text x="28" y="70" font-size="21" font-weight="800" fill="#111827">SharePoint</text>
      <text x="28" y="108" font-size="16" fill="#4b5563">Library, metadata, page,</text>
      <text x="28" y="134" font-size="16" fill="#4b5563">or list as needed.</text>
    </g>

    <g transform="translate(646 444)">
      <rect width="304" height="150" rx="18" fill="#fff4e5" stroke="#d97706" stroke-width="3"/>
      <text x="28" y="42" font-size="21" font-weight="800" fill="#111827">5. Govern and</text>
      <text x="28" y="70" font-size="21" font-weight="800" fill="#111827">improve</text>
      <text x="28" y="108" font-size="16" fill="#4b5563">Permissions, versions,</text>
      <text x="28" y="134" font-size="16" fill="#4b5563">retention, and owners.</text>
    </g>
  </g>

  <path d="M398 290h42M774 290h42M986 374c0 44-76 68-146 70M586 520h42" stroke="#9aa5b1" stroke-width="6" stroke-linecap="round" fill="none"/>
  <path d="M440 290l-22-15v30ZM816 290l-22-15v30ZM628 520l-22-15v30Z" fill="#9aa5b1"/>
</svg>
